<svg xmlns="http://www.w3.org/2000/svg" width="200" height="200" viewBox="0 0 200 200"><g transform="translate(0 -0.001)"><path d="M188.955,0H11.039A11.038,11.038,0,0,0,0,11.04V188.956A11.043,11.043,0,0,0,11.039,200h95.785V122.549H80.761V92.361h26.062V70.1c0-25.828,15.771-39.9,38.816-39.9a216.166,216.166,0,0,1,23.286,1.186v27l-15.985.007c-12.53,0-14.948,5.957-14.948,14.694V92.351h29.9l-3.909,30.185H137.99v77.455h50.962A11.05,11.05,0,0,0,200,188.956V11.033A11.04,11.04,0,0,0,188.955,0Z" transform="translate(0)" fill="#012d26"/></g></svg>