<svg xmlns="http://www.w3.org/2000/svg" width="199.962" height="200" viewBox="0 0 199.962 200"><g transform="translate(-0.449 0)"><path d="M199.9,58.8c-.469-10.627-2.187-17.933-4.649-24.263A51.233,51.233,0,0,0,165.99,5.274c-6.367-2.462-13.635-4.18-24.262-4.649C131.022.118,127.623,0,100.469,0S69.916.118,59.25.586c-10.627.469-17.933,2.189-24.262,4.649A48.8,48.8,0,0,0,17.249,16.8,49.241,49.241,0,0,0,5.724,34.5c-2.462,6.369-4.18,13.635-4.649,24.262C.567,69.467.449,72.866.449,100.02s.118,30.553.586,41.219c.469,10.627,2.189,17.933,4.65,24.263a51.224,51.224,0,0,0,29.263,29.263c6.369,2.462,13.635,4.18,24.263,4.649,10.665.47,14.065.586,41.219.586s30.553-.116,41.219-.586c10.627-.469,17.933-2.187,24.262-4.649A51.156,51.156,0,0,0,195.176,165.5c2.46-6.369,4.18-13.636,4.649-24.263.469-10.666.586-14.065.586-41.219S200.371,69.467,199.9,58.8Zm-18.01,81.657c-.43,9.768-2.071,15.042-3.438,18.558A33.177,33.177,0,0,1,159.465,178c-3.516,1.367-8.829,3.008-18.558,3.437-10.549.47-13.713.586-40.4.586s-29.889-.116-40.4-.586c-9.768-.429-15.042-2.069-18.558-3.437a30.776,30.776,0,0,1-11.486-7.463A31.094,31.094,0,0,1,22.6,159.056c-1.367-3.516-3.008-8.83-3.437-18.558-.47-10.549-.586-13.714-.586-40.4s.116-29.889.586-40.4c.429-9.768,2.07-15.042,3.437-18.558a30.4,30.4,0,0,1,7.5-11.488A31.046,31.046,0,0,1,41.59,22.192c3.516-1.367,8.83-3.008,18.558-3.438,10.549-.469,13.714-.586,40.4-.586,26.725,0,29.889.118,40.4.586,9.768.43,15.042,2.071,18.558,3.438a30.753,30.753,0,0,1,11.486,7.462,31.087,31.087,0,0,1,7.463,11.488c1.367,3.516,3.008,8.829,3.438,18.558.469,10.549.586,13.713.586,40.4S182.361,129.909,181.892,140.458Zm0,0" transform="translate(0 0)" fill="#012d26"/><path d="M176.327,124.5A51.377,51.377,0,1,0,227.7,175.877,51.39,51.39,0,0,0,176.327,124.5Zm0,84.7a33.327,33.327,0,1,1,33.327-33.327A33.333,33.333,0,0,1,176.327,209.2Zm0,0" transform="translate(-75.858 -75.858)" fill="#012d26"/><path d="M386.439,100.6a12,12,0,1,1-12-11.994A12,12,0,0,1,386.439,100.6Zm0,0" transform="translate(-220.566 -53.985)" fill="#012d26"/></g></svg>