<svg xmlns="http://www.w3.org/2000/svg" xmlns:xlink="http://www.w3.org/1999/xlink" width="200" height="200" viewBox="0 0 200 200"><defs><clipPath id="b"><rect width="200" height="200"/></clipPath></defs><g id="a" clip-path="url(#b)"><path d="M106.932,5.732v81.13a5.736,5.736,0,0,1-5.707,5.748H89.813a5.736,5.736,0,0,1-5.707-5.748V31.73a5.743,5.743,0,0,0-7.911-5.356L3.567,56.422A5.838,5.838,0,0,0,0,61.779V194.252A5.736,5.736,0,0,0,5.707,200H78.335a5.736,5.736,0,0,0,5.706-5.748V143.627a5.736,5.736,0,0,1,5.707-5.748h11.413a5.736,5.736,0,0,1,5.706,5.748v50.625A5.736,5.736,0,0,0,112.574,200H185.2a5.736,5.736,0,0,0,5.707-5.748V35.846a5.839,5.839,0,0,0-3.567-5.356L114.714.441A5.667,5.667,0,0,0,106.932,5.732Z" transform="translate(4.818 0)" fill="#3ecfaf"/></g></svg>