<svg width="125" height="25" viewBox="0 0 125 25" fill="none" xmlns="http://www.w3.org/2000/svg">
<path d="M13.0457 0.678148V10.2761C13.0457 10.6548 12.7292 10.9562 12.3495 10.9562H10.9571C10.5695 10.9562 10.2609 10.647 10.2609 10.2761V3.75382C10.2609 3.26697 9.75459 2.93467 9.29574 3.12014L0.43512 6.67494C0.174048 6.78313 0 7.03042 0 7.30862V22.9806C0 23.3593 0.316451 23.6607 0.696191 23.6607H9.55681C9.94446 23.6607 10.253 23.3516 10.253 22.9806V16.9916C10.253 16.6129 10.5695 16.3115 10.9492 16.3115H12.3416C12.7292 16.3115 13.0378 16.6206 13.0378 16.9916V22.9806C13.0378 23.3593 13.3542 23.6607 13.734 23.6607H22.5946C22.9822 23.6607 23.2908 23.3516 23.2908 22.9806V4.24067C23.2908 3.96247 23.1167 3.71518 22.8556 3.60699L13.995 0.0521944C13.552 -0.133273 13.0457 0.199023 13.0457 0.678148Z" fill="white"/>
<path d="M47.3647 20.676V23.0793C47.3647 23.3807 47.1115 23.628 46.803 23.628H35.9645C35.656 23.628 35.4028 23.3807 35.4028 23.0793V6.27133C35.4028 5.96995 35.656 5.72266 35.9645 5.72266H38.7177C39.0262 5.72266 39.2794 5.96995 39.2794 6.27133V20.1196H46.803C47.1115 20.1273 47.3647 20.3669 47.3647 20.676Z" fill="#012D26"/>
<path d="M62.3642 20.8408V23.1437C62.3642 23.4141 62.1427 23.6305 61.8658 23.6305H60.5288C59.0573 23.6305 58.2583 23.1514 58.0209 22.0386C57.9972 21.9304 57.8469 21.8995 57.7836 21.9922C57.0716 23.1591 55.6001 23.9087 53.5906 23.9087C50.6555 23.9087 48.7964 22.3245 48.7964 19.8671C48.7964 17.3632 50.7346 15.8254 54.4529 15.8254H57.4909V15.439C57.4909 14.0094 56.7551 13.3448 55.2124 13.3448C54.0653 13.3448 52.9973 13.7389 52.1191 14.473C51.9134 14.6431 51.6049 14.6508 51.415 14.4576L49.9356 12.9352C49.7536 12.7497 49.7457 12.4484 49.9277 12.2706C51.2331 10.9878 53.2346 10.2305 55.5051 10.2305C59.0969 10.2305 61.0826 12.1238 61.0826 15.2922V20.2766C61.0826 20.7094 61.2171 20.8408 61.581 20.8408H62.3642V20.8408ZM57.4909 18.5379V18.1283H54.8248C53.1713 18.1283 52.4672 18.6383 52.4672 19.6661C52.4672 20.663 53.1476 21.2272 54.4846 21.2272C56.3121 21.2272 57.4909 20.153 57.4909 18.5379Z" fill="#012D26"/>
<path d="M80.3003 6.27133V23.0793C80.3003 23.3807 80.0472 23.628 79.7386 23.628H77.0093C76.7007 23.628 76.4476 23.3807 76.4476 23.0793V16.2093H68.8923C68.5838 16.2093 68.3306 16.4566 68.3306 16.758V23.0793C68.3306 23.3807 68.0775 23.628 67.7689 23.628H65.0158C64.7073 23.628 64.4541 23.3807 64.4541 23.0793V6.27133C64.4541 5.96995 64.7073 5.72266 65.0158 5.72266H67.7689C68.0775 5.72266 68.3306 5.96995 68.3306 6.27133V12.7318H75.8859C76.1944 12.7318 76.4476 12.4845 76.4476 12.1831V6.27133C76.4476 5.96995 76.7007 5.72266 77.0093 5.72266H79.7386C80.0551 5.72266 80.3003 5.96995 80.3003 6.27133Z" fill="#012D26"/>
<path d="M110.542 11.0805V23.1359C110.542 23.4064 110.313 23.6305 110.036 23.6305H107.409C107.133 23.6305 106.903 23.4064 106.903 23.1359V21.714C106.167 23.0973 104.569 23.9937 102.607 23.9937C99.8068 23.9937 98.2324 22.2318 98.2324 19.1329V11.0805C98.2324 10.81 98.4618 10.5859 98.7387 10.5859H101.444C101.721 10.5859 101.951 10.81 101.951 11.0805V18.1824C101.951 19.8671 102.505 20.6862 104.047 20.6862C105.748 20.6862 106.824 19.7125 106.824 17.9506V11.0805C106.824 10.81 107.053 10.5859 107.33 10.5859H110.036C110.321 10.5859 110.542 10.81 110.542 11.0805Z" fill="#012D26"/>
<path d="M112.957 21.2968L114.135 19.7435C114.317 19.5039 114.665 19.4498 114.903 19.6353C115.963 20.4545 117.434 20.9722 118.89 20.9722C120.203 20.9722 120.907 20.5395 120.907 19.8749C120.907 19.3107 120.433 18.9553 119.309 18.7002L117.086 18.1902C114.286 17.5256 113.186 16.2428 113.186 14.4577C113.186 11.977 115.282 10.2383 118.819 10.2383C120.939 10.2383 122.806 10.8642 124.04 11.8843C124.262 12.0698 124.309 12.3866 124.135 12.6185L122.933 14.2181C122.759 14.4499 122.426 14.4963 122.181 14.334C121.042 13.5999 119.887 13.283 118.771 13.283C117.49 13.283 116.888 13.6926 116.888 14.334C116.888 14.7977 117.284 15.13 118.463 15.385L120.765 15.9182C123.621 16.5828 124.641 17.8656 124.641 19.6817C124.641 22.3169 122.521 24.0015 118.882 24.0015C116.461 24.0015 114.357 23.2597 113.02 22C112.806 21.8068 112.79 21.5054 112.957 21.2968Z" fill="#012D26"/>
<path d="M96.3271 20.8408V23.1437C96.3271 23.4141 96.1056 23.6305 95.8287 23.6305H94.4917C93.0202 23.6305 92.2212 23.1514 91.9838 22.0386C91.9601 21.9304 91.8098 21.8995 91.7465 21.9922C91.0345 23.1591 89.563 23.9087 87.5535 23.9087C84.6184 23.9087 82.7593 22.3245 82.7593 19.8671C82.7593 17.3632 84.6975 15.8254 88.4158 15.8254H91.4538V15.439C91.4538 14.0094 90.718 13.3448 89.1753 13.3448C88.0282 13.3448 86.9602 13.7389 86.082 14.473C85.8763 14.6431 85.5678 14.6508 85.3779 14.4576L83.8985 12.9352C83.7165 12.7497 83.7086 12.4484 83.8906 12.2706C85.1959 10.9878 87.1975 10.2305 89.468 10.2305C93.0597 10.2305 95.0455 12.1238 95.0455 15.2922V20.2766C95.0455 20.7094 95.18 20.8408 95.5439 20.8408H96.3271V20.8408ZM91.4538 18.5379V18.1283H88.7798C87.1263 18.1283 86.4222 18.6383 86.4222 19.6661C86.4222 20.663 87.1026 21.2272 88.4396 21.2272C90.275 21.2272 91.4538 20.153 91.4538 18.5379Z" fill="#012D26"/>
</svg>
