<svg xmlns="http://www.w3.org/2000/svg" xmlns:xlink="http://www.w3.org/1999/xlink" width="200" height="200" viewBox="0 0 200 200"><defs><clipPath id="b"><rect width="200" height="200"/></clipPath></defs><g id="a" clip-path="url(#b)"><g transform="translate(0 -29.25)"><g transform="translate(0 48)"><path d="M200,67.238a85.486,85.486,0,0,1-23.625,6.475A40.772,40.772,0,0,0,194.412,51.05a81.94,81.94,0,0,1-26,9.925A41,41,0,0,0,97.487,89.013a42.219,42.219,0,0,0,.95,9.35A116.056,116.056,0,0,1,13.925,55.475a41.013,41.013,0,0,0,12.6,54.8A40.492,40.492,0,0,1,8,105.225v.45a41.19,41.19,0,0,0,32.85,40.287,40.923,40.923,0,0,1-10.75,1.35,36.254,36.254,0,0,1-7.762-.7A41.392,41.392,0,0,0,60.65,175.175,82.386,82.386,0,0,1,9.812,192.663,76.8,76.8,0,0,1,0,192.1a115.431,115.431,0,0,0,62.9,18.4c75.45,0,116.7-62.5,116.7-116.675,0-1.813-.062-3.563-.15-5.3A81.8,81.8,0,0,0,200,67.238Z" transform="translate(0 -48)" fill="#012d26"/></g></g></g></svg>