<svg xmlns="http://www.w3.org/2000/svg" width="292" height="196.25" viewBox="0 0 292 196.25"><g transform="translate(-1)"><rect width="292" height="196" rx="10" transform="translate(1)" fill="#e5f0ee"/><path d="M247.162,82.981a8.761,8.761,0,0,0-3.85.919,13.058,13.058,0,0,0-21.262,1.225,7.8,7.8,0,0,0-1.006-.088A7.039,7.039,0,0,0,214,92.081h42.262A9.177,9.177,0,0,0,247.162,82.981Z" fill="#fff"/><path d="M142.78,196.25h61.738a21.349,21.349,0,0,0,4.475-.553V140.092l-21.719-26.244-21.72,26.244v28.1H142.78Z" fill="#fff"/><path d="M100.949,196.25h41.829v-28.1h22.775v-28.1H105.675v31.573H92v22.322A18.513,18.513,0,0,0,100.949,196.25Z" fill="#e5e5e5"/><path d="M192.7,107.262l-5.43,6.536,21.719,26.294h10.86Z" fill="rgba(27,27,27,0.6)"/><path d="M98.384,140.092H165.5l27.2-32.83H125.583Z" fill="#d4d4d4"/><path d="M123.221,143.108h-7.793v14.731h7.793Z" fill="rgba(91,104,102,0.69)"/><path d="M196.373,143.108H188.58v28.456h7.793Z" fill="rgba(91,104,102,0.36)"/><path d="M196.373,175.285H188.58v18.4h7.793Z" fill="rgba(91,104,102,0.36)"/><path d="M117.239,180.865H101.2v8.849h16.038Z" fill="rgba(91,104,102,0.69)"/><path d="M135.942,180.865H119.9v8.849h16.038Z" fill="rgba(91,104,102,0.69)"/><path d="M139.883,54.313a9.951,9.951,0,0,0-7.039,2.922l-1.594,1.594-1.461-1.461a9.9,9.9,0,0,0-14.078-.133l-.133.133a10.1,10.1,0,0,0,0,14.344l15.672,15.8,15.672-15.8a10.1,10.1,0,0,0,0-14.344A9.554,9.554,0,0,0,139.883,54.313Z" fill="#fff"/><path d="M149.328,41.125a2.11,2.11,0,0,0-1.491.619l-.337.338-.309-.309a2.1,2.1,0,0,0-2.982-.028l-.028.028a2.138,2.138,0,0,0,0,3.037l3.319,3.347,3.319-3.347a2.14,2.14,0,0,0,0-3.037A2.023,2.023,0,0,0,149.328,41.125Z" fill="#fff"/><path d="M304.162,30.981a8.76,8.76,0,0,0-3.85.919,13.059,13.059,0,0,0-21.262,1.225,7.814,7.814,0,0,0-1.006-.088A7.039,7.039,0,0,0,271,40.081h42.262A9.177,9.177,0,0,0,304.162,30.981Z" transform="translate(-23)" fill="#fff"/><path d="M40.358,30.391a14.117,14.117,0,0,0-6.195,1.475A21.039,21.039,0,0,0-.048,33.833a12.583,12.583,0,0,0-1.619-.141A11.313,11.313,0,0,0-13,45H55A14.751,14.751,0,0,0,40.358,30.391Z" transform="translate(15)" fill="#fff"/></g></svg>