<svg xmlns="http://www.w3.org/2000/svg" xmlns:xlink="http://www.w3.org/1999/xlink" width="600" height="115" viewBox="0 0 600 115"><defs><clipPath id="b"><rect width="600" height="115"/></clipPath></defs><g id="a" clip-path="url(#b)"><path d="M62.8,3.264v46.2a3.318,3.318,0,0,1-3.351,3.274h-6.7a3.318,3.318,0,0,1-3.351-3.274V18.07a3.363,3.363,0,0,0-4.646-3.05L2.095,32.132A3.325,3.325,0,0,0,0,35.182v75.442A3.318,3.318,0,0,0,3.351,113.9H46a3.318,3.318,0,0,0,3.351-3.274V81.795a3.318,3.318,0,0,1,3.351-3.274h6.7a3.318,3.318,0,0,1,3.351,3.274v28.83a3.318,3.318,0,0,0,3.351,3.274h42.653a3.318,3.318,0,0,0,3.351-3.274V20.414a3.325,3.325,0,0,0-2.095-3.05L67.369.251A3.319,3.319,0,0,0,62.8,3.264Z" transform="translate(0 0)" fill="#3ecfaf"/><path d="M92.985,77.706V89.275a2.684,2.684,0,0,1-2.7,2.641H38.107a2.683,2.683,0,0,1-2.7-2.641V8.364a2.683,2.683,0,0,1,2.7-2.641H51.36a2.684,2.684,0,0,1,2.7,2.641V75.028H90.281A2.715,2.715,0,0,1,92.985,77.706Z" transform="translate(135.02 21.827)" fill="#012d26"/><path d="M114.11,61.307V72.392a2.363,2.363,0,0,1-2.4,2.344h-6.436c-7.084,0-10.93-2.306-12.072-7.663a.643.643,0,0,0-1.143-.223c-3.427,5.617-10.511,9.226-20.184,9.226-14.129,0-23.079-7.626-23.079-19.456,0-12.053,9.331-19.456,27.23-19.456H90.65V35.3c0-6.882-3.542-10.081-10.968-10.081a22.955,22.955,0,0,0-14.891,5.431A2.518,2.518,0,0,1,61.4,30.58L54.28,23.251a2.277,2.277,0,0,1-.038-3.2c6.284-6.175,15.919-9.821,26.849-9.821,17.29,0,26.849,9.114,26.849,24.366V58.591c0,2.083.647,2.716,2.4,2.716ZM90.65,50.221V48.25H77.816c-7.959,0-11.349,2.455-11.349,7.4,0,4.8,3.275,7.514,9.711,7.514C84.976,63.167,90.65,58,90.65,50.221Z" transform="translate(186.101 39.019)" fill="#012d26"/><path d="M140.735,8.365V89.276a2.684,2.684,0,0,1-2.7,2.641H124.893a2.684,2.684,0,0,1-2.7-2.641V56.2H85.819a2.684,2.684,0,0,0-2.7,2.641v30.43a2.683,2.683,0,0,1-2.7,2.641H67.158a2.684,2.684,0,0,1-2.7-2.641V8.365a2.684,2.684,0,0,1,2.7-2.641H80.411a2.683,2.683,0,0,1,2.7,2.641v31.1h36.37a2.684,2.684,0,0,0,2.7-2.641V8.365a2.684,2.684,0,0,1,2.7-2.641h13.139A2.659,2.659,0,0,1,140.735,8.365Z" transform="translate(245.817 21.829)" fill="#012d26"/><path d="M157.49,12.967V71a2.429,2.429,0,0,1-2.441,2.381H142.408A2.425,2.425,0,0,1,139.972,71V64.155c-3.543,6.659-11.235,10.974-20.68,10.974-13.483,0-21.061-8.481-21.061-23.4V12.967a2.426,2.426,0,0,1,2.437-2.381h13.025a2.425,2.425,0,0,1,2.436,2.381V47.155c0,8.109,2.667,12.053,10.095,12.053,8.188,0,13.368-4.687,13.368-13.169V12.967a2.425,2.425,0,0,1,2.436-2.381h13.021A2.4,2.4,0,0,1,157.49,12.967Z" transform="translate(374.635 40.375)" fill="#012d26"/><path d="M113.383,63.472,119.059,56a2.638,2.638,0,0,1,3.7-.521,32.239,32.239,0,0,0,19.193,6.436c6.321,0,9.709-2.083,9.709-5.282,0-2.716-2.282-4.427-7.692-5.655l-10.7-2.455c-13.479-3.2-18.774-9.374-18.774-17.968,0-11.942,10.09-20.311,27.116-20.311,10.205,0,19.193,3.013,25.133,7.924A2.565,2.565,0,0,1,167.2,21.7l-5.786,7.7a2.682,2.682,0,0,1-3.62.558A29.964,29.964,0,0,0,141.376,24.9c-6.167,0-9.064,1.972-9.064,5.059,0,2.232,1.906,3.832,7.582,5.059l11.081,2.567c13.748,3.2,18.658,9.374,18.658,18.117,0,12.685-10.205,20.795-27.723,20.795-11.654,0-21.783-3.571-28.219-9.635A2.448,2.448,0,0,1,113.383,63.472Z" transform="translate(430.367 39.049)" fill="#012d26"/><path d="M148.072,61.307V72.392a2.362,2.362,0,0,1-2.4,2.344h-6.436c-7.084,0-10.93-2.306-12.072-7.663a.643.643,0,0,0-1.143-.223c-3.427,5.617-10.511,9.226-20.184,9.226-14.129,0-23.078-7.626-23.078-19.456,0-12.053,9.331-19.456,27.23-19.456h14.624V35.3c0-6.882-3.541-10.081-10.968-10.081a22.957,22.957,0,0,0-14.891,5.431,2.518,2.518,0,0,1-3.389-.074l-7.122-7.329a2.277,2.277,0,0,1-.038-3.2c6.284-6.175,15.919-9.821,26.849-9.821,17.29,0,26.849,9.114,26.849,24.366V58.591c0,2.083.647,2.716,2.4,2.716ZM124.613,50.221V48.25H111.741c-7.96,0-11.349,2.455-11.349,7.4,0,4.8,3.275,7.514,9.711,7.514C118.938,63.167,124.613,58,124.613,50.221Z" transform="translate(315.629 39.019)" fill="#012d26"/></g></svg>